<svg id="Layer_1" data-name="Layer 1" xmlns="http://www.w3.org/2000/svg" xmlns:xlink="http://www.w3.org/1999/xlink" viewBox="0 0 21.9 21.6"><defs><style>.cls-1,.cls-2{fill:none;}.cls-2,.cls-3{stroke:#cecece;}.cls-2,.cls-5{stroke-linecap:round;}.cls-2,.cls-3,.cls-5{stroke-linejoin:round;stroke-width:0.5px;}.cls-3{fill:#cecece;}.cls-4{clip-path:url(#clip-path);}.cls-5{fill:#7a7b7b;stroke:#7b7c7c;}</style><clipPath id="clip-path" transform="translate(-0.87 -0.94)"><rect class="cls-1" x="11.68" y="-1.49" width="16.52" height="22.55"/></clipPath></defs><title>wingburst-logo</title><polygon class="cls-2" points="2.03 4.98 4.57 4.92 4.46 2.43 6.86 3.2 7.57 0.8 9.6 2.31 11.07 0.25 12.5 2.32 14.56 0.86 15.22 3.29 17.65 2.57 17.47 5.06 20.02 5.15 19.04 7.47 21.4 8.37 19.71 10.25 21.65 11.86 19.45 13.09 20.74 15.24 18.25 15.69 18.79 18.14 16.28 17.77 15.96 20.26 13.72 19.1 12.62 21.35 10.86 19.54 9.08 21.32 8.02 19.05 5.74 20.16 5.49 17.66 2.99 17.98 3.56 15.54 1.08 15.03 2.44 12.92 0.25 11.63 2.22 10.05 0.59 8.16 2.95 7.29 2.03 4.98"/><path class="cls-3" d="M11.68,4.21l-0.28.49a1.11,1.11,0,0,0-.64.84A1.4,1.4,0,0,0,11,7c-2.38.81-3.86,3.88-4.41,6,0,0,3-2.2,3.8-2s0.25,1.62.16,2.64S9.9,19.55,9.9,19.55c0.66-2.28.89-4.5,1.78-5.83V4.21Z" transform="translate(-0.87 -0.94)"/><g class="cls-4"><path class="cls-5" d="M11.68,4.21L12,4.7a1.1,1.1,0,0,1,.66.84A1.4,1.4,0,0,1,12.41,7c2.38,0.81,3.86,3.88,4.43,6,0,0-3-2.2-3.8-2s-0.25,1.62-.16,2.64,0.62,6,.62,6c-0.66-2.3-.92-4.52-1.81-5.85V4.21Z" transform="translate(-0.87 -0.94)"/></g></svg>