<svg id="Layer_1" data-name="Layer 1" xmlns="http://www.w3.org/2000/svg" viewBox="0 0 750.31 188.49"><defs><style>.cls-1,.cls-3{fill:#57abf8;}.cls-2{fill:#d7d9e1;}.cls-3{font-size:96px;font-family:Baskerville;font-weight:700;}.cls-4{letter-spacing:1.16px;}.cls-5{letter-spacing:-1.16px;}</style></defs><title>logotextlight</title><path class="cls-1" d="M208.66,340.15l-3.29-.89-0.72-4.43c-9.35,2.83-13.68,11.78-10.3,19.33,2.71,6.06-2.81,12.84-10.71,12l1.13-10.47L180.13,353l4.35-2.31c5.7-8.5,1-15.28-.92-23.12-7.2.13-14.28-2.18-21.4,2.54-4.8,3.18-10.73,4.61-16.06,7-4,1.82-7.75,4.23-11.81,5.88-2.77,1.13-5.89,1.42-9.5,2.23-0.58-8.68,6.19-10.83,7.85-16.6l20.72-21.09,1.15,1.13c3.41-7.22,5-8.47,14.4-5.9L175,300c-6.69-3-13.41-6-20.08-9.08a13,13,0,0,1-2.71-2.1c-3.9-3.32-7.7-6.77-11.71-10-3.35-2.67-5.11-5.81-6.57-10-2.22-6.42-6.6-12.08-9.94-18.14-2-3.69-4-7.43-5.68-11.3a110.9,110.9,0,0,1-5-13.7c-0.51-1.81.45-4,.88-7.06l-1.84-6.22,3.51-3.72-2.55-7.82,1.77-1.76,9.18,5.79c5.06-2.86,8.72,1,13.09,3.91l-2.7-8.3c4.49-.9,10,3.54,12.73,9,2.42,4.83,5.09,9.53,7.54,14.09l4.58,1.06,19.73,17.73,5.56-16.78,4.32-1.74-0.59-8.73,6.51-1.73v-10.1l8.13-1.79,0.23-4.93,4.7-5.16c8.39,1.4,8.39,1.4,13.25-3.6,1-9.26,4.36-11.85,12.63-9,3.83,1.3,5.87,3.47,4.89,8.69-1.39,7.42-.81,15.18-1.34,22.78a20.72,20.72,0,0,1-1.92,6.91c-2.43,5.38.67,9.17,2.51,11.92l3.83,24.61,3.84-3.29c11.06-5.57,18.06,1.78,25.82,5.71,1.19,0.6,1.21,3.53,1.67,5-5.42,2.53-10.65,3.74-14.08,6.92s-5,8.25-7.38,12.54c-1.72,3.16-3.12,6.5-5,9.57-2.65,4.36-6.48,8.21-8.19,12.87-2.63,7.19-8.9,9.47-14.43,12.83-3.34,2-7.12,3.33-10.74,5a11.83,11.83,0,0,0,1.63,12.25c4,5.22.32,9-1.91,14.83Zm-65.76-114-12-7.21-1.16,4.63,4.9,6.05-0.85,3.77,8.52,15.43a15.35,15.35,0,0,1,6.83,13c0.06,4.16,2.45,7.94,6.83,10.26,7.89,4.17,15.6,8.71,23.11,13.52,5.22,3.35,8.34,3.46,13.31-.1,3.29-2.36,6.49-6.31,11.77-2.65,0.12,5.18-3.8,7.6-7.33,10.15s-7,4.67-10.56,7l0.72,1.61,8.2,2.25v4.94l17.61-24.15c-20.61-25.36-51.08-40-68.65-68.08l-1.21.92v8.66h0Zm82.55-19-16.06-1.91-1.76,7.07-8.25,1.27-7,21.68,1,0.39L190.21,239c0.2,6.84.24,13.31,6.71,17.48a115,115,0,0,1,10.69,8.19c4.49,3.71,8.54,3.74,13.33.29,1.82-1.31,4.13-1.94,6.22-2.87l1.52,1.69-4.5,6.9,0.76,0.86L239.38,258c-1.72-7.54-3.42-14.55-4.89-21.6-1.2-5.78-2.08-11.63-3.21-17.42a20.79,20.79,0,0,0-1.73-5.56,67.08,67.08,0,0,0-4.1-6.29h0Z" transform="translate(-112.33 -177.74)"/><path class="cls-2" d="M142.9,226.15v-8.62l1.21-.92c17.57,28,48,42.72,68.65,68.08l-17.61,24.15V303.9l-8.2-2.25L186.21,300c3.53-2.32,7.14-4.51,10.56-7s7.45-5,7.33-10.15c-5.27-3.66-8.48.3-11.77,2.65-5,3.56-8.08,3.45-13.31.1-7.51-4.82-15.22-9.35-23.11-13.52-4.39-2.32-6.78-6.1-6.83-10.26a15.35,15.35,0,0,0-6.83-13l-8.52-15.43,0.85-3.77-4.9-6.05,1.16-4.63Z" transform="translate(-112.33 -177.74)"/><path class="cls-2" d="M225.45,207.15a67.08,67.08,0,0,1,4.12,6.29A20.79,20.79,0,0,1,231.3,219c1.13,5.8,2,11.64,3.21,17.42,1.47,7.05,3.17,14,4.89,21.6L225,271.54l-0.76-.86,4.5-6.9-1.5-1.63c-2.09.94-4.4,1.56-6.22,2.87-4.79,3.45-8.84,3.42-13.33-.29A115,115,0,0,0,197,256.54c-6.47-4.17-6.51-10.64-6.71-17.48l3.16-3.33-1-.39,7-21.68,8.25-1.27,1.76-7.07Z" transform="translate(-112.33 -177.74)"/><text class="cls-3" transform="translate(156.52 152.95) scale(0.86 1)"><tspan class="cls-4">w</tspan><tspan class="cls-4" x="79.79" y="0">i</tspan><tspan x="111.17" y="0">n</tspan><tspan x="167.62" y="0">g</tspan><tspan class="cls-5" x="219.02" y="0">b</tspan><tspan class="cls-4" x="274.48" y="0">u</tspan><tspan class="cls-4" x="333.72" y="0">r</tspan><tspan x="377.47" y="0">s</tspan><tspan x="423.29" y="0">t </tspan><tspan x="484.27" y="0">c</tspan><tspan x="530.69" y="0">o</tspan><tspan class="cls-5" x="584" y="0">d</tspan><tspan x="640.55" y="0">e</tspan></text></svg>